<svg width="18" height="20" viewBox="0 0 18 20" fill="none" xmlns="http://www.w3.org/2000/svg">
<path d="M0.875 10L2.5 8.375H15.5L17.125 10V18.125L15.5 19.75H2.5L0.875 18.125V10ZM2.5 10V18.125H15.5V10H2.5ZM13.875 8.375V5.125C13.875 3.83207 13.3614 2.59209 12.4471 1.67785C11.5329 0.763615 10.2929 0.25 9 0.25C7.70707 0.25 6.46709 0.763615 5.55285 1.67785C4.63861 2.59209 4.125 3.83207 4.125 5.125V8.375H5.75V5.125C5.75 4.26305 6.09241 3.4364 6.7019 2.8269C7.3114 2.21741 8.13805 1.875 9 1.875C9.86195 1.875 10.6886 2.21741 11.2981 2.8269C11.9076 3.4364 12.25 4.26305 12.25 5.125V8.375H13.875Z" fill="#141414"/>
</svg>
