<svg width="18" height="19" viewBox="0 0 18 19" fill="none" xmlns="http://www.w3.org/2000/svg">
<path d="M8.99998 9.5C11.5292 9.5 13.5796 7.59721 13.5796 5.25C13.5796 2.90279 11.5292 1 8.99998 1C6.47076 1 4.42041 2.90279 4.42041 5.25C4.42041 7.59721 6.47076 9.5 8.99998 9.5Z" stroke="#141414" stroke-width="2"/>
<path d="M13.5796 11.2002H13.902C14.5716 11.2004 15.2181 11.4275 15.72 11.8388C16.2219 12.2501 16.5447 12.8174 16.6277 13.434L16.9859 16.0894C17.0181 16.3286 16.9951 16.5714 16.9184 16.8018C16.8418 17.0321 16.7132 17.2447 16.5413 17.4254C16.3694 17.6061 16.158 17.7508 15.9212 17.8499C15.6844 17.949 15.4275 18.0002 15.1678 18.0002H2.83223C2.57246 18.0002 2.31565 17.949 2.07884 17.8499C1.84203 17.7508 1.63064 17.6061 1.4587 17.4254C1.28676 17.2447 1.1582 17.0321 1.08155 16.8018C1.00491 16.5714 0.981926 16.3286 1.01414 16.0894L1.37134 13.434C1.45441 12.8171 1.77748 12.2496 2.27978 11.8382C2.78208 11.4269 3.42902 11.2 4.09894 11.2002H4.42043" stroke="#141414" stroke-width="2" stroke-linecap="round" stroke-linejoin="round"/>
</svg>
