<svg width="17" height="19" viewBox="0 0 17 19" fill="none" xmlns="http://www.w3.org/2000/svg">
<path d="M10.4352 1.51499C10.4546 1.48978 10.4788 1.4689 10.5062 1.45364C10.5336 1.43837 10.5638 1.42904 10.5948 1.42619C10.6258 1.42335 10.6571 1.42706 10.6867 1.4371C10.7163 1.44714 10.7436 1.46329 10.767 1.48459L11.6133 2.256L8.94935 5.6998H10.7146L12.6498 3.19936L14.1679 4.58353C14.2128 4.62454 14.2404 4.68205 14.2449 4.74381C14.2493 4.80557 14.2303 4.86669 14.1918 4.91414L13.5577 5.6998H15.3441C15.5654 5.3649 15.6606 4.95792 15.6119 4.55549C15.5631 4.15306 15.3738 3.78292 15.0795 3.51477L11.6795 0.41487C11.5154 0.265531 11.3237 0.152325 11.1159 0.0821678C10.9082 0.0120103 10.6888 -0.0136268 10.4711 0.00682242C10.2534 0.0272716 10.0421 0.0933778 9.84996 0.201104C9.65784 0.308829 9.48897 0.455914 9.35368 0.633373L5.49146 5.6998H7.24659L10.4352 1.51499ZM12.1757 12.3499C11.9929 12.3499 11.8176 12.425 11.6883 12.5586C11.5591 12.6922 11.4865 12.8734 11.4865 13.0624C11.4865 13.2514 11.5591 13.4326 11.6883 13.5662C11.8176 13.6999 11.9929 13.7749 12.1757 13.7749H14.0135C14.1963 13.7749 14.3716 13.6999 14.5008 13.5662C14.6301 13.4326 14.7027 13.2514 14.7027 13.0624C14.7027 12.8734 14.6301 12.6922 14.5008 12.5586C14.3716 12.425 14.1963 12.3499 14.0135 12.3499H12.1757ZM1.37838 5.9373C1.37838 5.74833 1.45099 5.5671 1.58024 5.43348C1.70949 5.29986 1.88478 5.22479 2.06757 5.22479H4.94195L6.0373 3.79977H2.06757C1.51921 3.79977 0.993321 4.02497 0.605576 4.42584C0.217832 4.8267 0 5.37039 0 5.9373V15.9125C0 16.7313 0.314647 17.5167 0.874722 18.0957C1.4348 18.6747 2.19442 19 2.98649 19H14.0135C14.8056 19 15.5652 18.6747 16.1253 18.0957C16.6854 17.5167 17 16.7313 17 15.9125V9.73736C17 8.91849 16.6854 8.13316 16.1253 7.55414C15.5652 6.97511 14.8056 6.64981 14.0135 6.64981H2.06757C1.88478 6.64981 1.70949 6.57475 1.58024 6.44112C1.45099 6.3075 1.37838 6.12627 1.37838 5.9373ZM1.37838 15.9125V7.95323C1.59432 8.03208 1.82589 8.07483 2.06757 8.07483H14.0135C14.9012 8.07483 15.6216 8.81965 15.6216 9.73736V15.9125C15.6216 16.3534 15.4522 16.7763 15.1506 17.088C14.849 17.3998 14.44 17.575 14.0135 17.575H2.98649C2.55999 17.575 2.15096 17.3998 1.84938 17.088C1.5478 16.7763 1.37838 16.3534 1.37838 15.9125Z" fill="#141414"/>
</svg>
